<svg width="1023" height="1032" viewBox="0 0 1023 1032" fill="none" xmlns="http://www.w3.org/2000/svg">
<path opacity="0.1" d="M511.5 0.5C793.586 0.5 1022.27 231.293 1022.27 516C1022.27 800.707 793.586 1031.5 511.5 1031.5C229.414 1031.5 0.72998 800.707 0.72998 516C0.72998 231.293 229.414 0.50025 511.5 0.5Z" stroke="white"/>
<path opacity="0.15" d="M905.111 469.982C905.262 471.313 905.406 472.645 905.544 473.98L905.049 474.031C905.186 475.355 905.316 476.681 905.44 478.008L905.937 477.961C906.06 479.287 906.177 480.615 906.288 481.944L905.792 481.986C905.903 483.313 906.007 484.643 906.105 485.974L906.603 485.937C906.701 487.27 906.793 488.605 906.878 489.942L906.381 489.973C906.466 491.308 906.544 492.645 906.616 493.984L907.113 493.957C907.185 495.287 907.252 496.619 907.311 497.954V497.955L906.812 497.977C906.87 499.305 906.922 500.634 906.968 501.965L907.465 501.948C907.51 503.28 907.551 504.615 907.584 505.951L907.085 505.963C907.118 507.297 907.143 508.633 907.163 509.97L907.661 509.963C907.681 511.303 907.694 512.643 907.7 513.986L907.202 513.988C907.205 514.658 907.207 515.329 907.207 516C907.207 516.672 907.205 517.343 907.202 518.013L907.7 518.014C907.694 519.357 907.681 520.697 907.661 522.037L907.163 522.03C907.143 523.367 907.118 524.703 907.085 526.038L907.584 526.049C907.551 527.385 907.51 528.72 907.465 530.052L906.968 530.036C906.922 531.367 906.87 532.696 906.812 534.024L907.311 534.045C907.252 535.38 907.185 536.712 907.113 538.043L906.616 538.017C906.544 539.355 906.465 540.692 906.38 542.027L906.878 542.058C906.793 543.395 906.701 544.729 906.603 546.062L906.105 546.027C906.007 547.358 905.903 548.688 905.792 550.015L906.288 550.056C906.177 551.385 906.06 552.713 905.937 554.039L905.44 553.993C905.316 555.32 905.185 556.646 905.048 557.969L905.544 558.02C905.406 559.355 905.262 560.687 905.111 562.018L904.615 561.962C904.464 563.291 904.307 564.618 904.144 565.943L904.638 566.003C904.474 567.33 904.303 568.655 904.126 569.977L903.633 569.912C903.456 571.232 903.273 572.552 903.084 573.869L903.576 573.939C903.386 575.26 903.189 576.579 902.986 577.896L902.495 577.821C902.291 579.145 902.081 580.466 901.864 581.786L902.357 581.867C902.14 583.188 901.915 584.506 901.686 585.823L901.195 585.738C900.966 587.053 900.729 588.366 900.487 589.676L900.978 589.766C900.735 591.079 900.487 592.389 900.231 593.697L899.742 593.602C899.487 594.911 899.225 596.217 898.957 597.521L899.444 597.621C899.174 598.934 898.9 600.245 898.617 601.553L898.13 601.449C897.848 602.755 897.558 604.059 897.264 605.361L897.749 605.47C897.454 606.774 897.153 608.075 896.845 609.374L896.36 609.259C896.053 610.556 895.739 611.851 895.419 613.143L895.903 613.262C895.582 614.559 895.253 615.853 894.92 617.144L894.438 617.02C894.104 618.316 893.763 619.609 893.416 620.9L893.897 621.029C893.55 622.321 893.195 623.61 892.835 624.897L892.355 624.763C891.996 626.049 891.631 627.332 891.259 628.612L891.736 628.75C891.364 630.032 890.986 631.311 890.602 632.587L890.124 632.444C889.739 633.721 889.347 634.996 888.949 636.268L889.425 636.417C889.025 637.695 888.62 638.971 888.208 640.244L887.734 640.09C887.323 641.361 886.905 642.63 886.481 643.895L886.954 644.053C886.53 645.32 886.099 646.585 885.663 647.846L885.192 647.683C884.757 648.943 884.315 650.2 883.867 651.454L884.336 651.622C883.886 652.88 883.431 654.136 882.969 655.389L882.501 655.217C882.039 656.472 881.571 657.724 881.097 658.972L881.562 659.149C881.087 660.399 880.606 661.646 880.119 662.89L879.654 662.708C879.168 663.951 878.676 665.191 878.178 666.427L878.64 666.613C878.141 667.851 877.635 669.085 877.124 670.317L876.664 670.126C876.152 671.36 875.635 672.591 875.111 673.818L875.57 674.014C875.045 675.245 874.513 676.472 873.976 677.697L873.52 677.497C872.983 678.719 872.441 679.939 871.893 681.156L872.347 681.36C871.798 682.578 871.245 683.794 870.685 685.005L870.23 684.795C869.671 686.005 869.106 687.212 868.534 688.415L868.983 688.628C868.409 689.837 867.83 691.042 867.244 692.244L866.797 692.025C866.212 693.226 865.62 694.424 865.023 695.619L865.471 695.841C864.873 697.037 864.268 698.229 863.659 699.417L863.216 699.191C862.608 700.378 861.994 701.562 861.374 702.742L861.814 702.973C861.194 704.155 860.568 705.334 859.937 706.508L859.497 706.273C858.864 707.45 858.225 708.623 857.581 709.792L858.017 710.033C857.371 711.204 856.72 712.372 856.063 713.536L855.631 713.292C854.975 714.454 854.313 715.613 853.646 716.768L854.078 717.017C853.41 718.174 852.737 719.327 852.058 720.476L851.629 720.223C850.951 721.371 850.267 722.516 849.577 723.657L850.003 723.915C849.311 725.059 848.615 726.201 847.912 727.338L847.487 727.077C846.785 728.212 846.077 729.344 845.364 730.472L845.785 730.739C845.071 731.868 844.353 732.994 843.628 734.116L843.209 733.845C842.485 734.966 841.756 736.082 841.021 737.195L841.438 737.47C840.701 738.585 839.959 739.695 839.212 740.802L838.8 740.524C838.053 741.631 837.3 742.734 836.542 743.833L836.952 744.116C836.193 745.216 835.43 746.313 834.661 747.406L834.253 747.119C833.485 748.21 832.711 749.297 831.932 750.379L832.336 750.669C831.556 751.754 830.771 752.834 829.98 753.91L829.579 753.616C828.789 754.691 827.993 755.763 827.192 756.831L827.593 757.13C826.791 758.2 825.982 759.264 825.169 760.325L824.773 760.023C823.962 761.083 823.145 762.138 822.323 763.189L822.716 763.497C821.893 764.549 821.065 765.597 820.232 766.641L819.843 766.331C819.011 767.373 818.173 768.411 817.331 769.445L817.717 769.759C816.873 770.796 816.023 771.828 815.169 772.856L814.786 772.538C813.933 773.564 813.074 774.586 812.211 775.604L812.592 775.926C811.727 776.945 810.857 777.959 809.982 778.969L809.606 778.644C808.733 779.653 807.855 780.657 806.972 781.657L807.344 781.987C806.46 782.988 805.572 783.985 804.678 784.977L804.307 784.643C803.413 785.635 802.515 786.622 801.611 787.604L801.979 787.942C801.074 788.926 800.163 789.904 799.249 790.878L798.887 790.538C797.974 791.511 797.055 792.48 796.133 793.444L796.493 793.789C795.569 794.754 794.64 795.714 793.706 796.669L793.351 796.322C792.418 797.276 791.482 798.226 790.54 799.171L790.892 799.523C789.949 800.469 789.002 801.412 788.05 802.349L787.7 801.994C786.749 802.93 785.793 803.861 784.832 804.788L785.178 805.146C784.216 806.073 783.249 806.996 782.278 807.914L781.937 807.552C780.967 808.469 779.993 809.381 779.014 810.288L779.353 810.653C778.372 811.561 777.387 812.464 776.397 813.362L776.063 812.993C775.076 813.89 774.083 814.782 773.086 815.669L773.417 816.042C772.419 816.93 771.416 817.813 770.409 818.691L770.082 818.316C769.076 819.193 768.066 820.065 767.052 820.932L767.375 821.311C766.359 822.179 765.338 823.041 764.313 823.899L763.994 823.517C762.971 824.374 761.944 825.226 760.912 826.072L761.228 826.457C760.195 827.304 759.158 828.147 758.117 828.984L757.805 828.595C756.765 829.431 755.72 830.261 754.672 831.086L754.979 831.478C753.93 832.305 752.876 833.126 751.817 833.942L751.514 833.547C750.457 834.362 749.395 835.173 748.33 835.977L748.631 836.375C747.565 837.18 746.494 837.979 745.42 838.773L745.125 838.373C744.052 839.166 742.975 839.953 741.895 840.736L742.186 841.139C741.103 841.923 740.018 842.701 738.928 843.474L738.64 843.067C737.551 843.839 736.458 844.606 735.361 845.367L735.645 845.775C734.547 846.536 733.445 847.293 732.339 848.043L732.059 847.632C730.955 848.381 729.848 849.125 728.737 849.863L729.014 850.279C727.901 851.018 726.783 851.749 725.663 852.477L725.392 852.06C724.273 852.787 723.15 853.508 722.023 854.224L722.29 854.644C721.162 855.361 720.03 856.073 718.895 856.779L718.632 856.355C717.499 857.059 716.361 857.757 715.221 858.45L715.479 858.875C714.338 859.568 713.193 860.255 712.045 860.937L711.79 860.509C710.643 861.19 709.492 861.865 708.338 862.535L708.588 862.966C707.432 863.636 706.272 864.3 705.109 864.958L704.864 864.526C703.703 865.184 702.537 865.836 701.368 866.482L701.608 866.917C700.44 867.564 699.268 868.206 698.093 868.84L697.856 868.401C696.683 869.034 695.506 869.662 694.326 870.284L694.558 870.724C693.376 871.346 692.191 871.962 691.002 872.573L690.775 872.13C689.588 872.74 688.397 873.345 687.203 873.943L687.427 874.388C686.231 874.987 685.032 875.58 683.83 876.167L683.611 875.719C682.414 876.304 681.213 876.883 680.009 877.456L680.222 877.906C679.016 878.479 677.808 879.048 676.597 879.609L676.387 879.156C675.176 879.716 673.963 880.271 672.746 880.82L672.951 881.274C671.733 881.823 670.511 882.367 669.286 882.904L669.086 882.448C667.863 882.984 666.637 883.515 665.407 884.04L665.602 884.499C664.375 885.021 663.146 885.538 661.913 886.048L661.723 885.588C660.492 886.099 659.257 886.603 658.02 887.101L658.205 887.563C656.966 888.062 655.724 888.556 654.479 889.042L654.298 888.578C653.054 889.063 651.807 889.543 650.558 890.016L650.733 890.483C649.484 890.956 648.23 891.423 646.975 891.884L646.803 891.417C645.553 891.875 644.3 892.328 643.045 892.775L643.211 893.246C641.954 893.693 640.694 894.132 639.431 894.567L639.269 894.096C638.007 894.53 636.743 894.958 635.476 895.379L635.632 895.853C634.363 896.275 633.092 896.692 631.817 897.101L631.665 896.625C630.395 897.034 629.122 897.436 627.846 897.832L627.993 898.306C626.72 898.701 625.444 899.09 624.165 899.472L624.023 898.995C622.747 899.376 621.467 899.752 620.185 900.121L620.321 900.6C619.038 900.969 617.751 901.331 616.462 901.687L616.329 901.208C615.042 901.565 613.752 901.914 612.459 902.257L612.586 902.739C611.296 903.081 610.003 903.418 608.707 903.748L608.584 903.264C607.294 903.592 606.003 903.915 604.708 904.23L604.825 904.714C603.529 905.03 602.23 905.341 600.929 905.644L600.816 905.158C599.517 905.46 598.215 905.757 596.91 906.046L597.018 906.532C595.711 906.822 594.402 907.105 593.091 907.382L592.989 906.895C591.685 907.171 590.378 907.44 589.069 907.703L589.167 908.192C587.861 908.454 586.552 908.708 585.241 908.957L585.149 908.468C583.84 908.717 582.528 908.959 581.215 909.195L581.303 909.686C579.987 909.922 578.669 910.15 577.35 910.373L577.268 909.882C575.95 910.105 574.629 910.32 573.307 910.53L573.384 911.021C572.066 911.23 570.747 911.434 569.426 911.629L569.354 911.135C568.038 911.33 566.719 911.517 565.399 911.699L565.467 912.192C564.145 912.374 562.821 912.549 561.495 912.717L561.434 912.223C560.11 912.391 558.783 912.553 557.455 912.708L557.513 913.204C556.183 913.359 554.851 913.506 553.517 913.648L553.465 913.154C552.141 913.295 550.814 913.428 549.486 913.556L549.533 914.053C548.208 914.181 546.881 914.299 545.552 914.414L545.511 913.918C544.184 914.032 542.854 914.14 541.523 914.241L541.56 914.737C540.227 914.838 538.893 914.931 537.557 915.019L537.525 914.523C536.191 914.61 534.854 914.691 533.516 914.765L533.543 915.261C532.211 915.335 530.878 915.404 529.543 915.464L529.521 914.966C528.194 915.026 526.865 915.08 525.534 915.126L525.551 915.624C524.218 915.67 522.884 915.712 521.548 915.746L521.536 915.247C520.202 915.28 518.867 915.307 517.529 915.328L517.536 915.825C516.197 915.845 514.856 915.859 513.514 915.866L513.512 915.368C512.842 915.371 512.171 915.373 511.5 915.373C510.829 915.373 510.158 915.371 509.487 915.368L509.485 915.866C508.143 915.859 506.802 915.845 505.463 915.825L505.471 915.328C504.133 915.307 502.797 915.28 501.463 915.247L501.45 915.746C500.115 915.712 498.781 915.67 497.448 915.624L497.466 915.126C496.135 915.08 494.806 915.026 493.479 914.966L493.456 915.464C492.121 915.404 490.788 915.335 489.456 915.261L489.483 914.765C488.145 914.691 486.809 914.61 485.475 914.523L485.441 915.019C484.105 914.931 482.771 914.838 481.438 914.737L481.477 914.241C480.146 914.14 478.816 914.032 477.489 913.918L477.446 914.414C476.118 914.299 474.791 914.181 473.466 914.053L473.514 913.556C472.186 913.428 470.858 913.295 469.534 913.154L469.481 913.648C468.148 913.506 466.816 913.359 465.486 913.204L465.544 912.708C464.216 912.553 462.89 912.391 461.566 912.223L461.503 912.717C460.177 912.549 458.854 912.374 457.532 912.192L457.601 911.699C456.281 911.517 454.962 911.33 453.646 911.135L453.573 911.629H453.572C452.251 911.434 450.932 911.23 449.614 911.021L449.693 910.53C448.371 910.32 447.05 910.105 445.732 909.882L445.648 910.373C444.329 910.15 443.011 909.921 441.696 909.685L441.784 909.195C440.471 908.959 439.16 908.717 437.851 908.468L437.757 908.957C436.446 908.708 435.138 908.454 433.832 908.192L433.93 907.703C432.621 907.44 431.315 907.171 430.011 906.895L429.907 907.382C428.596 907.105 427.288 906.822 425.981 906.532L426.09 906.046C424.785 905.757 423.483 905.46 422.184 905.158L422.07 905.644H422.069C420.768 905.341 419.47 905.03 418.174 904.714L418.292 904.23C416.997 903.914 415.705 903.592 414.415 903.264L414.292 903.748C412.996 903.418 411.703 903.081 410.412 902.739L410.541 902.257C409.248 901.914 407.957 901.564 406.67 901.208L406.537 901.687C405.248 901.331 403.961 900.969 402.678 900.6L402.815 900.121C401.533 899.752 400.253 899.376 398.977 898.995L398.834 899.472C397.555 899.09 396.279 898.701 395.006 898.306L395.154 897.832C393.878 897.436 392.604 897.034 391.334 896.625L391.182 897.1C389.907 896.691 388.635 896.274 387.366 895.852L387.524 895.379C386.257 894.958 384.993 894.53 383.731 894.096L383.568 894.567C382.306 894.132 381.045 893.693 379.788 893.246L379.955 892.775C378.7 892.328 377.447 891.875 376.197 891.417L376.024 891.884C374.769 891.423 373.515 890.956 372.266 890.483L372.442 890.016C371.193 889.543 369.946 889.063 368.702 888.578L368.521 889.042C367.275 888.556 366.033 888.062 364.794 887.563L364.98 887.101C363.743 886.603 362.509 886.099 361.277 885.588L361.086 886.048C359.853 885.537 358.623 885.022 357.396 884.499L357.593 884.04C356.363 883.515 355.137 882.984 353.914 882.448L353.713 882.904C352.488 882.367 351.266 881.823 350.048 881.274L350.254 880.82C349.037 880.271 347.823 879.716 346.612 879.156L346.402 879.609C345.191 879.048 343.983 878.479 342.777 877.906L342.991 877.456C341.787 876.883 340.586 876.304 339.389 875.719L339.169 876.167C337.967 875.579 336.768 874.987 335.572 874.388L335.797 873.943C334.603 873.345 333.412 872.74 332.225 872.13L331.997 872.573C330.809 871.962 329.623 871.346 328.441 870.724L328.674 870.284C327.494 869.662 326.317 869.034 325.144 868.401L324.906 868.84C323.731 868.206 322.559 867.564 321.391 866.917L321.632 866.482C320.463 865.836 319.297 865.184 318.136 864.526L317.89 864.958C316.727 864.3 315.567 863.636 314.411 862.966L314.662 862.535C313.508 861.865 312.357 861.19 311.21 860.509L310.954 860.937C309.806 860.255 308.661 859.568 307.52 858.875L307.779 858.45C306.639 857.757 305.501 857.059 304.368 856.355L304.104 856.779C302.969 856.073 301.837 855.361 300.709 854.644L300.977 854.224C299.85 853.508 298.727 852.787 297.608 852.06L297.336 852.477C296.216 851.749 295.098 851.018 293.985 850.279L294.263 849.863C293.152 849.125 292.045 848.381 290.941 847.632L290.66 848.043C289.554 847.293 288.452 846.536 287.354 845.775L287.64 845.367C286.543 844.606 285.449 843.839 284.36 843.067L284.071 843.474C282.981 842.701 281.896 841.923 280.813 841.139L281.105 840.736C280.025 839.953 278.948 839.166 277.876 838.373L277.579 838.773C276.505 837.979 275.435 837.18 274.369 836.375L274.67 835.977C273.605 835.173 272.543 834.362 271.486 833.547L271.183 833.942C270.124 833.126 269.07 832.305 268.02 831.478L268.328 831.087C267.28 830.262 266.235 829.431 265.195 828.595L264.882 828.984C263.84 828.147 262.804 827.304 261.771 826.457L262.088 826.072C261.056 825.225 260.029 824.374 259.006 823.517L258.686 823.899C257.661 823.041 256.64 822.179 255.624 821.311L255.949 820.932C254.935 820.065 253.924 819.193 252.918 818.316L252.59 818.691C251.583 817.813 250.581 816.929 249.583 816.041L249.914 815.669C248.917 814.783 247.925 813.89 246.938 812.994L246.602 813.362C245.612 812.464 244.628 811.561 243.647 810.653L243.986 810.288C243.007 809.381 242.033 808.469 241.063 807.552L240.722 807.914C239.751 806.996 238.783 806.074 237.821 805.147L238.168 804.788C237.207 803.861 236.252 802.93 235.301 801.994L234.95 802.349C233.998 801.412 233.051 800.47 232.107 799.523L232.461 799.171C231.519 798.226 230.582 797.276 229.649 796.322L229.293 796.669C228.36 795.714 227.43 794.754 226.506 793.789L226.867 793.444C225.945 792.48 225.026 791.512 224.113 790.539L223.75 790.878C222.836 789.904 221.925 788.926 221.021 787.942L221.389 787.604C220.485 786.622 219.587 785.635 218.693 784.643L218.321 784.977C217.427 783.985 216.539 782.988 215.655 781.987L216.029 781.657C215.146 780.657 214.268 779.653 213.395 778.644L213.017 778.969C212.142 777.959 211.272 776.945 210.407 775.926L210.789 775.604C209.926 774.586 209.067 773.564 208.214 772.538L207.83 772.855C206.976 771.827 206.126 770.796 205.282 769.759L205.669 769.445C204.827 768.411 203.99 767.373 203.158 766.331L202.767 766.641C201.934 765.597 201.107 764.548 200.284 763.496L200.677 763.189C199.855 762.138 199.038 761.083 198.227 760.023L197.831 760.325C197.019 759.264 196.209 758.2 195.407 757.13L195.808 756.831C195.007 755.763 194.211 754.691 193.421 753.616L193.019 753.911C192.228 752.834 191.443 751.754 190.663 750.669L191.068 750.379C190.289 749.297 189.515 748.21 188.747 747.119L188.338 747.407C187.568 746.314 186.806 745.216 186.047 744.116L186.458 743.833C185.7 742.734 184.948 741.631 184.201 740.524L183.787 740.802C183.04 739.695 182.298 738.584 181.562 737.469L181.979 737.195C181.244 736.082 180.515 734.966 179.791 733.845L179.371 734.116C178.646 732.994 177.928 731.868 177.214 730.739L177.636 730.472C176.923 729.344 176.215 728.212 175.513 727.077L175.088 727.338C174.385 726.201 173.688 725.06 172.996 723.915L173.423 723.657C172.733 722.516 172.049 721.371 171.371 720.223L170.941 720.476C170.262 719.327 169.589 718.174 168.921 717.017L169.354 716.768C168.687 715.613 168.026 714.454 167.37 713.292L166.936 713.536C166.279 712.372 165.628 711.204 164.982 710.033L165.419 709.792C164.775 708.623 164.136 707.449 163.503 706.272L163.062 706.508C162.431 705.334 161.805 704.155 161.185 702.973L161.627 702.742C161.007 701.561 160.392 700.378 159.784 699.191L159.341 699.417C158.732 698.228 158.126 697.037 157.528 695.841L157.977 695.618C157.38 694.424 156.788 693.226 156.203 692.025L155.755 692.244C155.169 691.042 154.59 689.837 154.016 688.628L154.466 688.415C153.894 687.211 153.329 686.004 152.77 684.794L152.315 685.003C151.755 683.792 151.201 682.578 150.652 681.36L151.107 681.156C150.559 679.939 150.017 678.719 149.48 677.497L149.023 677.696C148.486 676.472 147.954 675.245 147.429 674.014L147.89 673.818C147.366 672.591 146.848 671.36 146.336 670.126L145.875 670.317C145.364 669.085 144.858 667.851 144.359 666.613L144.822 666.426C144.324 665.19 143.832 663.951 143.346 662.708L142.88 662.889C142.393 661.645 141.913 660.398 141.438 659.148L141.904 658.971C141.43 657.723 140.961 656.471 140.499 655.216L140.03 655.388C139.568 654.135 139.112 652.88 138.662 651.621L139.133 651.454C138.685 650.2 138.243 648.943 137.808 647.683L137.337 647.845C136.9 646.584 136.468 645.32 136.044 644.052L136.519 643.895C136.095 642.63 135.678 641.361 135.267 640.09L134.791 640.243C134.379 638.97 133.974 637.695 133.574 636.417L134.051 636.268C133.653 634.996 133.261 633.721 132.876 632.443L132.396 632.587C132.012 631.311 131.635 630.031 131.263 628.75L131.742 628.611C131.37 627.331 131.004 626.048 130.645 624.763L130.164 624.897C129.804 623.61 129.449 622.32 129.102 621.028L129.584 620.899C129.237 619.609 128.896 618.316 128.562 617.02L128.079 617.144C127.746 615.853 127.417 614.559 127.096 613.262L127.581 613.143C127.261 611.851 126.947 610.556 126.64 609.259L126.154 609.374C125.846 608.075 125.545 606.774 125.25 605.47L125.736 605.361C125.441 604.059 125.153 602.754 124.871 601.448L124.382 601.552C124.099 600.244 123.824 598.933 123.555 597.621L124.043 597.521C123.775 596.217 123.513 594.91 123.258 593.601L122.769 593.696C122.513 592.388 122.265 591.078 122.022 589.766L122.513 589.676C122.271 588.366 122.034 587.053 121.805 585.738L121.313 585.823C121.084 584.506 120.859 583.188 120.642 581.867L121.136 581.786C120.919 580.466 120.709 579.145 120.505 577.821L120.012 577.895C119.809 576.578 119.613 575.259 119.423 573.938L119.917 573.868C119.728 572.551 119.544 571.232 119.367 569.912L118.873 569.977C118.696 568.655 118.526 567.33 118.362 566.003L118.857 565.943C118.694 564.618 118.536 563.29 118.385 561.961L117.889 562.017C117.738 560.687 117.594 559.354 117.456 558.02L117.952 557.969C117.815 556.645 117.685 555.319 117.561 553.992L117.062 554.038C116.939 552.712 116.822 551.384 116.711 550.055L117.208 550.015C117.097 548.687 116.993 547.357 116.895 546.026L116.396 546.062C116.298 544.729 116.206 543.394 116.121 542.057L116.62 542.027C116.535 540.692 116.456 539.355 116.384 538.016L115.886 538.042C115.814 536.711 115.748 535.379 115.689 534.044L116.188 534.023C116.13 532.695 116.079 531.366 116.033 530.035L115.535 530.051C115.49 528.719 115.449 527.384 115.416 526.048L115.915 526.038C115.882 524.703 115.857 523.367 115.837 522.03L115.339 522.036C115.319 520.697 115.305 519.356 115.299 518.014L115.798 518.012L115.793 516C115.793 515.329 115.795 514.658 115.798 513.988L115.299 513.985C115.305 512.642 115.319 511.302 115.339 509.962L115.837 509.97C115.857 508.633 115.882 507.297 115.915 505.962L115.416 505.95C115.449 504.614 115.49 503.28 115.535 501.948L116.033 501.964C116.079 500.633 116.13 499.304 116.188 497.976L115.689 497.955C115.748 496.62 115.814 495.288 115.886 493.957L116.384 493.983C116.456 492.645 116.535 491.308 116.62 489.973L116.121 489.941C116.206 488.604 116.298 487.27 116.396 485.937L116.895 485.973C116.993 484.642 117.097 483.312 117.208 481.985L116.711 481.943C116.822 480.614 116.939 479.287 117.062 477.961L117.561 478.007C117.685 476.68 117.815 475.354 117.952 474.031L117.456 473.979C117.591 472.679 117.73 471.38 117.877 470.083L117.889 469.981L118.385 470.038C118.536 468.709 118.694 467.382 118.857 466.057L118.362 465.996C118.526 464.669 118.696 463.344 118.873 462.022L119.367 462.088C119.544 460.768 119.728 459.448 119.917 458.131L119.423 458.061C119.613 456.74 119.81 455.42 120.013 454.103L120.505 454.179C120.709 452.855 120.919 451.534 121.136 450.214L120.643 450.133L120.642 450.132C120.859 448.811 121.084 447.493 121.313 446.176L121.805 446.262C122.034 444.947 122.271 443.634 122.513 442.324L122.022 442.233C122.265 440.92 122.513 439.61 122.769 438.302L123.258 438.398C123.513 437.089 123.775 435.783 124.043 434.479L123.555 434.378C123.818 433.097 124.086 431.818 124.361 430.542L124.382 430.447L124.871 430.552C125.153 429.246 125.441 427.941 125.736 426.639L125.25 426.529C125.545 425.225 125.846 423.924 126.154 422.625L126.64 422.741C126.947 421.444 127.261 420.149 127.581 418.857L127.096 418.737C127.417 417.44 127.746 416.147 128.079 414.855L128.562 414.98C128.896 413.684 129.237 412.391 129.584 411.101L129.102 410.971C129.449 409.679 129.804 408.389 130.164 407.102L130.645 407.237C131.004 405.951 131.37 404.668 131.742 403.388L131.263 403.25C131.635 401.968 132.012 400.688 132.396 399.412L132.397 399.413L132.877 399.556C133.262 398.279 133.653 397.004 134.051 395.732L133.574 395.583C133.974 394.304 134.379 393.029 134.791 391.756L135.267 391.91C135.678 390.639 136.095 389.37 136.519 388.105L136.045 387.946C136.469 386.679 136.901 385.415 137.337 384.154L137.808 384.317C138.243 383.057 138.686 381.8 139.134 380.546L138.663 380.377C139.113 379.119 139.569 377.863 140.03 376.61L140.499 376.783C140.961 375.528 141.43 374.276 141.904 373.028L141.438 372.851C141.913 371.601 142.393 370.353 142.88 369.109L143.346 369.292C143.832 368.049 144.325 366.81 144.823 365.574L144.359 365.386C144.858 364.148 145.364 362.914 145.875 361.682L146.336 361.874C146.848 360.64 147.366 359.409 147.89 358.182L147.43 357.986L147.429 357.985C147.954 356.754 148.487 355.527 149.024 354.302L149.48 354.503C150.017 353.281 150.559 352.061 151.107 350.844L150.652 350.639C151.201 349.421 151.755 348.206 152.315 346.995L152.77 347.205C153.329 345.995 153.894 344.788 154.466 343.585L154.016 343.371C154.59 342.162 155.169 340.957 155.755 339.755L156.203 339.975C156.788 338.774 157.38 337.576 157.977 336.382L157.529 336.159L157.528 336.158C158.126 334.962 158.732 333.771 159.341 332.582L159.784 332.809C160.392 331.622 161.007 330.439 161.627 329.258L161.185 329.026C161.805 327.844 162.431 326.665 163.062 325.491L163.503 325.728C164.136 324.551 164.775 323.377 165.419 322.208L164.982 321.966C165.628 320.795 166.279 319.627 166.936 318.463L167.37 318.708C168.026 317.546 168.687 316.387 169.354 315.232L168.921 314.982C169.589 313.825 170.262 312.672 170.941 311.523L171.371 311.777C172.049 310.629 172.733 309.484 173.423 308.343L172.996 308.084C173.688 306.94 174.385 305.798 175.088 304.661L175.513 304.924C176.215 303.788 176.923 302.656 177.636 301.528L177.214 301.261C177.928 300.132 178.646 299.005 179.371 297.883L179.791 298.155C180.515 297.034 181.244 295.918 181.979 294.805L181.562 294.53C182.298 293.415 183.04 292.304 183.787 291.197L184.201 291.476C184.948 290.369 185.7 289.266 186.458 288.167L186.047 287.883C186.806 286.783 187.568 285.685 188.338 284.592L188.339 284.593L188.747 284.881C189.515 283.79 190.289 282.703 191.068 281.621L190.663 281.33C191.443 280.245 192.228 279.165 193.019 278.089L193.421 278.384C194.211 277.309 195.007 276.237 195.808 275.169L195.407 274.87L195.406 274.869C196.209 273.799 197.018 272.735 197.831 271.674L198.227 271.977C199.038 270.917 199.855 269.862 200.677 268.811L200.283 268.503C201.104 267.453 201.93 266.407 202.761 265.366L202.767 265.358L203.158 265.67C203.99 264.628 204.827 263.589 205.669 262.555L205.282 262.24C206.126 261.203 206.976 260.172 207.83 259.144L208.214 259.462C209.067 258.436 209.926 257.414 210.789 256.396L210.407 256.073C211.272 255.054 212.142 254.04 213.017 253.03L213.394 253.356C214.267 252.347 215.145 251.343 216.028 250.343L215.655 250.012C216.539 249.011 217.427 248.014 218.321 247.022L218.693 247.357C219.587 246.365 220.485 245.378 221.389 244.396L221.021 244.058C221.926 243.074 222.836 242.095 223.75 241.121L224.113 241.462C225.026 240.489 225.945 239.52 226.867 238.556L226.506 238.21C227.43 237.245 228.36 236.286 229.293 235.33L229.649 235.678C230.582 234.724 231.518 233.774 232.46 232.829L232.107 232.476C233.05 231.53 233.997 230.587 234.949 229.65L235.301 230.006C236.252 229.07 237.207 228.139 238.168 227.212L237.821 226.853C238.783 225.925 239.75 225.003 240.722 224.085L241.063 224.448C242.033 223.531 243.007 222.619 243.986 221.712L243.646 221.346C244.627 220.438 245.611 219.535 246.601 218.637L246.937 219.007C247.924 218.11 248.917 217.218 249.914 216.331L249.583 215.958C250.581 215.07 251.583 214.186 252.59 213.308L252.918 213.684C253.924 212.807 254.935 211.936 255.949 211.069L255.624 210.688C256.64 209.82 257.661 208.958 258.686 208.1L259.006 208.483C260.029 207.626 261.056 206.775 262.088 205.928L261.771 205.542C262.804 204.695 263.84 203.852 264.882 203.015L265.195 203.406C266.235 202.57 267.28 201.739 268.328 200.914L268.02 200.521C269.069 199.695 270.123 198.873 271.182 198.057L271.486 198.453C272.543 197.638 273.605 196.827 274.67 196.023L274.369 195.625L274.368 195.624C275.434 194.819 276.504 194.021 277.578 193.227L277.876 193.627C278.948 192.834 280.025 192.047 281.105 191.264L280.813 190.86C281.896 190.076 282.981 189.298 284.071 188.525L284.36 188.933C285.449 188.161 286.543 187.395 287.64 186.634L287.354 186.224C288.452 185.463 289.554 184.706 290.66 183.956L290.941 184.369C292.045 183.62 293.152 182.876 294.263 182.138L293.986 181.721C295.099 180.982 296.216 180.25 297.336 179.522L297.608 179.94C298.727 179.213 299.85 178.492 300.977 177.776L300.709 177.355C301.837 176.638 302.969 175.926 304.104 175.22L304.368 175.645C305.501 174.941 306.639 174.243 307.779 173.55L307.521 173.124C308.661 172.431 309.806 171.743 310.954 171.062L311.21 171.491C312.357 170.81 313.508 170.135 314.662 169.465L314.411 169.033C315.567 168.363 316.727 167.699 317.89 167.041L318.136 167.474C319.297 166.816 320.463 166.164 321.632 165.518L321.391 165.082C322.559 164.435 323.731 163.793 324.906 163.159L325.145 163.599C326.318 162.966 327.494 162.338 328.674 161.716L328.441 161.275C329.623 160.653 330.809 160.037 331.997 159.426L332.225 159.87C333.412 159.26 334.603 158.655 335.797 158.057L335.573 157.61C336.769 157.011 337.968 156.419 339.17 155.832L339.389 156.281C340.586 155.696 341.788 155.117 342.992 154.544L342.777 154.093C343.983 153.52 345.191 152.952 346.402 152.39L346.613 152.844C347.824 152.284 349.037 151.729 350.254 151.18L350.048 150.725C351.266 150.176 352.488 149.633 353.713 149.095L353.914 149.552C355.137 149.016 356.364 148.485 357.594 147.96L357.397 147.5C358.624 146.977 359.854 146.462 361.087 145.951L361.278 146.412C362.51 145.901 363.744 145.397 364.981 144.899L364.794 144.436C366.033 143.937 367.275 143.443 368.521 142.957L368.703 143.422C369.946 142.937 371.193 142.457 372.442 141.984L372.266 141.517C373.516 141.043 374.768 140.576 376.024 140.115L376.197 140.583C377.447 140.125 378.7 139.672 379.956 139.225L379.788 138.753C381.045 138.306 382.306 137.867 383.569 137.432L383.731 137.904C384.993 137.47 386.257 137.042 387.524 136.621L387.367 136.147C388.636 135.725 389.907 135.308 391.182 134.899L391.335 135.375C392.605 134.966 393.878 134.564 395.154 134.168L395.007 133.692C396.28 133.297 397.556 132.909 398.834 132.527L398.978 133.005C400.254 132.624 401.534 132.248 402.816 131.879L402.678 131.399C403.961 131.03 405.248 130.668 406.537 130.312L406.671 130.792C407.958 130.436 409.248 130.086 410.541 129.743L410.413 129.26C411.704 128.918 412.996 128.581 414.292 128.251L414.416 128.736C415.706 128.408 416.998 128.086 418.293 127.77L418.174 127.285C419.47 126.969 420.768 126.658 422.069 126.355L422.07 126.356L422.185 126.842C423.484 126.54 424.786 126.244 426.091 125.955L425.982 125.467C427.289 125.177 428.597 124.894 429.908 124.617L430.012 125.105C431.316 124.829 432.622 124.56 433.931 124.297L433.832 123.807C435.138 123.545 436.447 123.291 437.758 123.042L437.851 123.532C439.16 123.283 440.472 123.041 441.785 122.805L441.696 122.314C443.012 122.078 444.33 121.849 445.649 121.626L445.732 122.119C447.05 121.896 448.371 121.68 449.693 121.47L449.615 120.978C450.933 120.769 452.252 120.565 453.573 120.37L453.574 120.371L453.647 120.865C454.963 120.67 456.281 120.483 457.601 120.301L457.532 119.807C458.854 119.625 460.178 119.45 461.504 119.282L461.566 119.777C462.89 119.609 464.217 119.447 465.545 119.292L465.487 118.795C466.817 118.64 468.149 118.493 469.482 118.351L469.535 118.846C470.859 118.705 472.186 118.572 473.514 118.444L473.466 117.946C474.791 117.818 476.118 117.7 477.447 117.585L477.49 118.082C478.817 117.968 480.146 117.86 481.477 117.759L481.439 117.262C482.772 117.161 484.106 117.068 485.442 116.98L485.476 117.477C486.81 117.39 488.146 117.309 489.484 117.235L489.456 116.738C490.788 116.664 492.121 116.595 493.456 116.535L493.479 117.035C494.806 116.975 496.135 116.92 497.466 116.874L497.448 116.375C498.781 116.329 500.115 116.287 501.451 116.253L501.464 116.753C502.798 116.72 504.133 116.693 505.471 116.673L505.464 116.174C506.803 116.154 508.143 116.14 509.485 116.133L509.488 116.632C510.158 116.629 510.829 116.627 511.5 116.627C512.171 116.627 512.842 116.629 513.513 116.632L513.515 116.133C514.857 116.14 516.197 116.154 517.536 116.174L517.529 116.673C518.867 116.694 520.203 116.72 521.537 116.753L521.549 116.253C522.884 116.287 524.218 116.329 525.551 116.375L525.534 116.874C526.865 116.92 528.195 116.975 529.522 117.035L529.544 116.535C530.879 116.595 532.212 116.664 533.543 116.738L533.517 117.235C534.855 117.309 536.191 117.39 537.525 117.477L537.558 116.98C538.894 117.068 540.228 117.161 541.561 117.262L541.523 117.759C542.854 117.86 544.184 117.968 545.511 118.082L545.553 117.585C546.882 117.7 548.209 117.818 549.534 117.946L549.487 118.444C550.815 118.572 552.142 118.705 553.466 118.846L553.518 118.351C554.851 118.493 556.183 118.64 557.513 118.795L557.456 119.292C558.784 119.447 560.11 119.609 561.434 119.777L561.496 119.282C562.822 119.45 564.145 119.625 565.467 119.807L565.4 120.301C566.72 120.483 568.038 120.671 569.354 120.866L569.427 120.371V120.37C570.748 120.565 572.067 120.769 573.385 120.978L573.308 121.47C574.63 121.68 575.95 121.896 577.268 122.119L577.351 121.626C578.67 121.849 579.988 122.077 581.303 122.313L581.216 122.805C582.529 123.041 583.84 123.283 585.149 123.532L585.242 123.042C586.553 123.291 587.862 123.545 589.168 123.807L589.07 124.297C590.379 124.56 591.685 124.829 592.989 125.105L593.092 124.617C594.403 124.894 595.711 125.177 597.018 125.467L596.91 125.955C598.215 126.244 599.517 126.54 600.816 126.842L600.93 126.356V126.355C602.231 126.658 603.529 126.969 604.825 127.285L604.708 127.77C606.003 128.086 607.295 128.408 608.585 128.736L608.707 128.251C610.003 128.581 611.296 128.918 612.587 129.26L612.459 129.743C613.752 130.086 615.043 130.436 616.33 130.792L616.462 130.312C617.751 130.669 619.038 131.03 620.322 131.399L620.185 131.879C621.467 132.248 622.747 132.624 624.023 133.005L624.166 132.527C625.445 132.909 626.72 133.298 627.993 133.693L627.846 134.168C629.122 134.564 630.396 134.966 631.666 135.375L631.817 134.899C633.092 135.308 634.364 135.725 635.633 136.147L635.476 136.621C636.743 137.042 638.007 137.47 639.269 137.904L639.431 137.432C640.693 137.867 641.954 138.306 643.211 138.753L643.045 139.225C644.301 139.672 645.554 140.125 646.804 140.583L646.975 140.115C648.231 140.576 649.484 141.044 650.734 141.518L650.558 141.984C651.807 142.457 653.054 142.938 654.298 143.423L654.479 142.958V142.957C655.725 143.443 656.966 143.937 658.205 144.436L658.02 144.899C659.257 145.397 660.491 145.901 661.723 146.412L661.913 145.951C663.146 146.462 664.376 146.977 665.603 147.5L665.407 147.96C666.637 148.485 667.863 149.016 669.086 149.552L669.286 149.095C670.511 149.633 671.733 150.176 672.951 150.725L672.746 151.18C673.963 151.729 675.177 152.284 676.388 152.844L676.597 152.39C677.809 152.952 679.016 153.521 680.222 154.094L680.009 154.544C681.213 155.117 682.414 155.696 683.611 156.281L683.83 155.833C685.032 156.42 686.231 157.012 687.427 157.611L687.203 158.057C688.397 158.655 689.588 159.26 690.775 159.87L691.002 159.426C692.191 160.037 693.377 160.653 694.559 161.276L694.326 161.717C695.506 162.339 696.683 162.966 697.856 163.599L698.094 163.16V163.159C699.269 163.793 700.44 164.435 701.608 165.082L701.368 165.518C702.537 166.164 703.703 166.816 704.864 167.474L705.109 167.041C706.272 167.699 707.432 168.363 708.588 169.033L708.338 169.465C709.492 170.135 710.644 170.81 711.791 171.491L712.045 171.062C713.193 171.744 714.338 172.431 715.479 173.124L715.221 173.55C716.361 174.243 717.499 174.941 718.632 175.645L718.895 175.22C720.03 175.926 721.162 176.638 722.29 177.355L722.023 177.776C723.15 178.492 724.273 179.213 725.392 179.94L725.663 179.522C726.783 180.25 727.9 180.982 729.013 181.721H729.014L728.737 182.138C729.848 182.876 730.955 183.62 732.059 184.369L732.339 183.956C733.445 184.706 734.547 185.463 735.645 186.224L735.36 186.634C736.457 187.395 737.551 188.161 738.64 188.933L738.928 188.525C740.018 189.298 741.103 190.076 742.186 190.86L741.895 191.264C742.975 192.047 744.052 192.834 745.124 193.627L745.42 193.226C746.494 194.02 747.565 194.82 748.631 195.625L748.33 196.023C749.395 196.827 750.457 197.638 751.514 198.453L751.817 198.057C752.876 198.873 753.93 199.695 754.979 200.521L754.672 200.914C755.72 201.739 756.765 202.569 757.805 203.405L758.117 203.015C759.159 203.852 760.195 204.695 761.228 205.542L760.912 205.928C761.944 206.774 762.971 207.626 763.994 208.483L764.313 208.1C765.338 208.958 766.359 209.82 767.375 210.688L767.052 211.069C768.066 211.936 769.076 212.807 770.082 213.684L770.409 213.308C771.416 214.186 772.418 215.07 773.416 215.958L773.086 216.331C774.083 217.218 775.076 218.11 776.063 219.007L776.398 218.637C777.388 219.535 778.372 220.438 779.353 221.346L779.014 221.712C779.993 222.619 780.967 223.531 781.937 224.448L782.278 224.085C783.249 225.003 784.216 225.926 785.178 226.853L784.832 227.212C785.793 228.139 786.749 229.07 787.7 230.006L788.05 229.65C789.002 230.587 789.949 231.53 790.892 232.476L790.54 232.829C791.482 233.774 792.418 234.724 793.351 235.678L793.706 235.33C794.64 236.286 795.569 237.245 796.493 238.21H796.494L796.133 238.556C797.055 239.52 797.974 240.489 798.887 241.462L799.249 241.121C800.163 242.095 801.073 243.074 801.978 244.058L801.611 244.396C802.515 245.378 803.413 246.365 804.307 247.357L804.678 247.022C805.572 248.014 806.46 249.011 807.344 250.012L806.972 250.343C807.855 251.343 808.733 252.347 809.606 253.356L809.982 253.03C810.857 254.04 811.727 255.054 812.592 256.073H812.593L812.211 256.396C813.074 257.414 813.933 258.436 814.786 259.462L815.169 259.143C816.023 260.171 816.873 261.203 817.717 262.24L817.331 262.555C818.173 263.589 819.011 264.628 819.843 265.67L820.232 265.358C821.065 266.402 821.893 267.45 822.716 268.502L822.323 268.811C823.145 269.862 823.962 270.917 824.773 271.977L825.169 271.674C825.982 272.735 826.791 273.799 827.593 274.869V274.87L827.192 275.169C827.993 276.237 828.789 277.309 829.579 278.384L829.98 278.089C830.771 279.165 831.556 280.245 832.336 281.33L831.932 281.621C832.711 282.703 833.485 283.79 834.253 284.881L834.661 284.593C835.43 285.686 836.193 286.783 836.952 287.883L836.542 288.167C837.3 289.266 838.053 290.369 838.8 291.476L839.212 291.197C839.959 292.304 840.701 293.415 841.438 294.53H841.438L841.021 294.805C841.756 295.918 842.485 297.034 843.209 298.155L843.628 297.883C844.353 299.005 845.071 300.132 845.785 301.261L845.364 301.528C846.077 302.656 846.785 303.788 847.487 304.924L847.912 304.661C848.615 305.798 849.311 306.94 850.003 308.084L849.577 308.343C850.267 309.484 850.951 310.629 851.629 311.777L852.058 311.523C852.737 312.672 853.41 313.825 854.078 314.982H854.079L853.646 315.232C854.313 316.387 854.975 317.546 855.631 318.708L856.064 318.464C856.721 319.628 857.372 320.795 858.017 321.966L857.581 322.208C858.226 323.377 858.864 324.551 859.497 325.728L859.937 325.491C860.568 326.665 861.194 327.844 861.814 329.026L861.374 329.258C861.994 330.439 862.608 331.623 863.216 332.81L863.659 332.582C864.268 333.77 864.873 334.962 865.471 336.158V336.159L865.023 336.382C865.62 337.577 866.212 338.774 866.797 339.975L867.244 339.756C867.83 340.958 868.41 342.162 868.983 343.371L868.534 343.585C869.106 344.789 869.671 345.996 870.23 347.206L870.685 346.996V346.995C871.245 348.206 871.798 349.421 872.347 350.639L871.893 350.844C872.441 352.061 872.983 353.281 873.52 354.503L873.976 354.303C874.513 355.528 875.045 356.755 875.57 357.986L875.111 358.182C875.635 359.409 876.152 360.64 876.664 361.874L877.124 361.682C877.635 362.914 878.141 364.148 878.64 365.386L878.178 365.574C878.676 366.81 879.169 368.049 879.655 369.292L880.119 369.11C880.606 370.354 881.087 371.601 881.562 372.851L881.097 373.029C881.571 374.277 882.04 375.529 882.502 376.784L882.969 376.611C883.431 377.864 883.887 379.119 884.337 380.378L883.867 380.546C884.315 381.8 884.757 383.057 885.192 384.317L885.663 384.154C886.099 385.415 886.531 386.679 886.955 387.947L886.481 388.105C886.905 389.371 887.323 390.639 887.734 391.911L888.208 391.756C888.62 393.029 889.025 394.305 889.425 395.583L888.949 395.732C889.347 397.004 889.739 398.279 890.124 399.557L890.603 399.413V399.412C890.987 400.688 891.364 401.968 891.736 403.25L891.259 403.389C891.631 404.669 891.997 405.952 892.356 407.237L892.836 407.102C893.196 408.389 893.55 409.679 893.897 410.971L893.416 411.101C893.763 412.392 894.104 413.685 894.438 414.981L894.921 414.856C895.254 416.147 895.582 417.441 895.903 418.737L895.42 418.857C895.74 420.149 896.053 421.444 896.36 422.741L896.845 422.625C897.153 423.924 897.454 425.225 897.749 426.529L897.264 426.639C897.559 427.941 897.848 429.246 898.13 430.552L898.617 430.447C898.9 431.755 899.174 433.066 899.444 434.379L898.957 434.48C899.225 435.784 899.487 437.09 899.742 438.399L900.231 438.303C900.487 439.611 900.735 440.921 900.978 442.233L900.487 442.324C900.729 443.634 900.966 444.947 901.195 446.262L901.686 446.176C901.915 447.493 902.14 448.811 902.357 450.132V450.133L901.864 450.214C902.081 451.534 902.291 452.856 902.495 454.18L902.987 454.104C903.19 455.421 903.386 456.74 903.576 458.061L903.084 458.132C903.273 459.449 903.456 460.768 903.633 462.088L904.126 462.022C904.303 463.344 904.474 464.669 904.638 465.996L904.144 466.057C904.307 467.382 904.464 468.71 904.615 470.039L905.111 469.982Z" stroke="white" stroke-dasharray="4 4"/>
<path opacity="0.2" d="M511.5 233.85C665.892 233.85 791.058 360.169 791.059 516C791.059 671.831 665.892 798.15 511.5 798.15C357.108 798.15 231.941 671.831 231.941 516C231.942 360.169 357.108 233.85 511.5 233.85Z" stroke="white"/>
<path d="M176.081 116.627C181.796 116.628 186.436 121.304 186.436 127.083C186.436 132.861 181.796 137.538 176.081 137.539C170.367 137.539 165.726 132.861 165.726 127.083C165.726 121.304 170.367 116.627 176.081 116.627Z" stroke="#4D3763"/>
<path d="M176.081 123.201C178.198 123.201 179.922 124.934 179.922 127.083C179.922 129.231 178.198 130.965 176.081 130.965C173.963 130.965 172.239 129.231 172.239 127.083C172.239 124.934 173.963 123.201 176.081 123.201Z" fill="#2A193C" stroke="#4D3763"/>
</svg>
